Coordinates
version=1
nRows=12
nColumns=24
inDegrees=yes

Units are S.I. units (second, meters, Newtons, ...)
Angles are in degrees.

endheader
time	pelvis_tilt	pelvis_list	pelvis_rotation	pelvis_tx	pelvis_ty	pelvis_tz	hip_flexion_r	hip_adduction_r	hip_rotation_r	knee_angle_r	ankle_angle_r	subtalar_angle_r	mtp_angle_r	hip_flexion_l	hip_adduction_l	hip_rotation_l	knee_angle_l	ankle_angle_l	subtalar_angle_l	mtp_angle_l	lumbar_extension	lumbar_bending	lumbar_rotation
      0.52900000	     -0.01238959	      3.50151015	     -0.38559790	     -0.84088771	      0.98655012	      0.29723007	     20.75456651	     -2.40367647	     -4.79759303	      5.76293231	     -2.63936577	     -6.39605476	      7.60380759	    -20.28624795	      8.13111936	      8.40752018	      1.57437997	     10.02506617	     -9.70210297	      1.96657161	    -11.76179597	      5.56796646	    -10.98579187
      0.53316667	     -0.02987033	      3.36080058	     -0.37928001	     -0.83520122	      0.98569080	      0.29737457	     20.70179900	     -2.20661224	     -4.42435137	      5.74335649	     -2.96806871	     -6.64775145	      7.60881245	    -20.41891343	      7.98382454	      8.37700649	      1.14437711	     10.30216668	     -9.54225525	      1.97395778	    -11.72838232	      5.77982119	    -10.95632120
      0.53733333	     -0.04721506	      3.22889254	     -0.40771305	     -0.82952865	      0.98487260	      0.29758157	     20.66946453	     -2.01024542	     -3.94422741	      5.62481664	     -3.34551613	     -7.02963377	      7.62409865	    -20.49984438	      7.86338598	      8.21585373	      0.61912050	     10.61891105	     -9.27195640	      2.00082897	    -11.70036735	      5.96759983	    -10.91197952
      0.54150000	     -0.06807760	      3.05019595	     -0.42169637	     -0.82382514	      0.98409869	      0.29778539	     20.64342992	     -1.77180016	     -3.48301619	      5.43047534	     -3.77586237	     -7.44984305	      7.64538570	    -20.57406973	      7.68948294	      8.08736710	      0.07651825	     10.93692762	     -9.00761089	      2.04368552	    -11.67205465	      6.21263462	    -10.86055810
      0.54566667	     -0.10600190	      2.86025000	     -0.44537818	     -0.81808707	      0.98335003	      0.29800318	     20.64827255	     -1.52033808	     -2.98916361	      5.15410257	     -4.25541512	     -7.95354274	      7.67242304	    -20.60390713	      7.51210761	      7.91719261	     -0.51461982	     11.23919719	     -8.74578063	      2.10694731	    -11.61012060	      6.47866187	    -10.79166271
      0.54983333	     -0.12565743	      2.64433852	     -0.47225945	     -0.81235845	      0.98266856	      0.29826039	     20.63736156	     -1.24044016	     -2.46528645	      4.82257885	     -4.77904061	     -8.52677260	      7.71048389	    -20.62688396	      7.30937491	      7.71318983	     -1.16187463	     11.54854522	     -8.45913131	      2.20058694	    -11.59113157	      6.76239183	    -10.72491411
      0.55400000	     -0.16370035	      2.40587282	     -0.50630803	     -0.80655692	      0.98200624	      0.29851890	     20.66485664	     -0.93477755	     -1.97088688	      4.40593724	     -5.36608147	     -9.15343845	      7.74383214	    -20.63256172	      7.08855714	      7.52925868	     -1.80347182	     11.81181121	     -8.22301298	      2.30278681	    -11.52364473	      7.08618903	    -10.63956100
      0.55816667	     -0.20390753	      2.15642444	     -0.54353006	     -0.80076820	      0.98138465	      0.29880876	     20.70758181	     -0.61493598	     -1.45808470	      3.92898546	     -5.97924743	     -9.84261478	      7.77823327	    -20.60310982	      6.85962427	      7.31207052	     -2.51143998	     12.06268958	     -7.97558947	      2.42710523	    -11.46720938	      7.41794452	    -10.55146079
      0.56233333	     -0.24760695	      1.88079604	     -0.58783775	     -0.79494820	      0.98079731	      0.29912816	     20.76656986	     -0.26348636	     -0.95435351	      3.39375417	     -6.62743312	    -10.57230552	      7.81116060	    -20.56048824	      6.60634171	      7.08462341	     -3.23914351	     12.29219601	     -7.73256086	      2.57448131	    -11.41502803	      7.76831852	    -10.45367194
      0.56650000	     -0.27708229	      1.59591677	     -0.63978389	     -0.78910845	      0.98026773	      0.29946582	     20.82439521	      0.10121982	     -0.46475800	      2.80409361	     -7.28339267	    -11.33047548	      7.84257664	    -20.50962099	      6.34876481	      6.81347976	     -4.01820027	     12.49792798	     -7.49297962	      2.75265340	    -11.36885278	      8.14194747	    -10.34662835
      0.57066667	     -0.33381694	      1.29865058	     -0.68934635	     -0.78326062	      0.97974488	      0.29982285	     20.92904592	      0.48120943	      0.00228051	      2.15504251	     -7.93701170	    -12.10183721	      7.86985078	    -20.40472940	      6.07873728	      6.55699225	     -4.84877469	     12.68036816	     -7.27264564	      2.95931585	    -11.31138557	      8.51104436	    -10.23924454
      0.57483333	     -0.38808208	      0.99792096	     -0.75079202	     -0.77739180	      0.97926603	      0.30019365	     21.05455652	      0.87007093	      0.43595968	      1.43912667	     -8.57906832	    -12.86652958	      7.88988436	    -20.29248211	      5.81095228	      6.29481394	     -5.69552228	     12.81405937	     -7.08411391	      3.19027307	    -11.23647141	      8.90094134	    -10.12192146
